<svg xmlns="http://www.w3.org/2000/svg" fill="#97969b" xmlns:xlink="http://www.w3.org/1999/xlink" version="1.1" x="0px" y="0px" viewBox="0 0 24 30" style="enable-background:new 0 0 24 24;" xml:space="preserve"><g><path d="M23.721,19.775l-0.597-0.596c0.194-0.23,0.314-0.527,0.314-0.862c-0.02-5.275-0.02-10.539,0-15.814   c0-0.772-0.574-1.326-1.326-1.326c-6.878,0.01-13.756,0-20.624,0c-0.821,0-1.316,0.505-1.316,1.316c0,5.275,0,10.559-0.01,15.834   c0,0.762,0.584,1.316,1.316,1.306c3.444-0.02,6.888-0.01,10.332-0.01h0.741l-0.152,0.152c-0.113,0.113-0.148,0.282-0.089,0.431   c0.059,0.148,0.2,0.247,0.359,0.252l1.921,0.059l0.056,1.919c0.005,0.159,0.104,0.301,0.252,0.36   c0.048,0.019,0.098,0.028,0.147,0.028c0.104,0,0.207-0.041,0.283-0.117l2.184-2.184c0.176,0.027,0.35,0.065,0.532,0.065   c0.191,0,0.385-0.018,0.578-0.049l2.168,2.168c0.076,0.076,0.179,0.117,0.283,0.117c0.05,0,0.1-0.01,0.147-0.028   c0.148-0.06,0.248-0.201,0.252-0.36l0.056-1.919l1.921-0.059c0.159-0.005,0.301-0.104,0.36-0.252   C23.869,20.057,23.833,19.888,23.721,19.775z M4.833,4.798c1.524-0.02,4.78-0.01,6.304-0.01h5.789c0.841,0,1.445,0.465,1.653,1.257   c0.247,0.94-0.515,1.94-1.484,1.95c-1.761,0.01-3.523,0-5.284,0H4.882c-0.92,0-1.623-0.683-1.633-1.573   C3.24,5.53,3.923,4.808,4.833,4.798z M13.749,9.407C13.657,9.56,13.515,9.6,13.344,9.6c-1.252-0.003-2.504-0.002-3.756-0.002   c-1.235,0-4.206,0-5.441,0c-0.32,0-0.498-0.143-0.497-0.396c0.001-0.246,0.19-0.403,0.501-0.404c2.479-0.001,6.693-0.002,9.172,0   C13.705,8.799,13.923,9.118,13.749,9.407z M10.073,14.811c-0.267,0.001-0.534,0.001-0.802,0c-0.601-0.003-1.144,0.141-1.624,0.533   c-0.44,0.359-0.929,0.372-1.342,0.094c-0.195-0.131-0.31-0.322-0.409-0.573c-0.213,0.22-0.398,0.411-0.584,0.602   c-0.142,0.145-0.308,0.199-0.499,0.112c-0.182-0.082-0.242-0.238-0.238-0.43c0.004-0.212,0.001-0.424-0.048-0.644   c-0.115,0.263-0.229,0.528-0.346,0.79c-0.131,0.293-0.331,0.393-0.569,0.288c-0.218-0.096-0.29-0.323-0.174-0.596   c0.378-0.89,0.759-1.778,1.143-2.664c0.103-0.237,0.298-0.357,0.485-0.301c0.233,0.069,0.318,0.233,0.313,0.475   c-0.01,0.559-0.003,1.118-0.003,1.678c0.093,0.03,0.12-0.051,0.161-0.091c0.245-0.239,0.484-0.484,0.729-0.723   c0.16-0.156,0.344-0.205,0.544-0.074c0.177,0.116,0.225,0.331,0.111,0.558c-0.117,0.235-0.202,0.475-0.196,0.741   c0.005,0.219,0.132,0.299,0.324,0.188c0.151-0.087,0.289-0.197,0.432-0.298c0.422-0.296,0.895-0.439,1.405-0.457   c0.392-0.014,0.785-0.009,1.177-0.007c0.347,0.002,0.522,0.141,0.524,0.402C10.592,14.678,10.421,14.811,10.073,14.811z    M9.59,11.202c-1.235,0-4.206,0-5.441,0c-0.321,0-0.502-0.143-0.501-0.393C3.65,10.564,3.843,10.4,4.147,10.4   c2.479-0.001,6.693,0,9.171,0.003c0.354,0,0.569,0.255,0.464,0.539c-0.078,0.211-0.249,0.263-0.462,0.262   C12.077,11.2,10.833,11.202,9.59,11.202z M14.105,18.035c-0.09-0.333-0.137-0.68-0.137-1.024c0-2.248,1.829-4.077,4.077-4.077   s4.077,1.829,4.077,4.077c0,0.355-0.054,0.691-0.141,1.024l-0.414-0.414c0.034-0.199,0.056-0.4,0.056-0.61   c0-1.973-1.604-3.577-3.577-3.577s-3.577,1.604-3.577,3.577c0,0.208,0.027,0.419,0.066,0.628l-0.421,0.421   C14.111,18.051,14.107,18.043,14.105,18.035z M17.399,19.71c-0.359-0.09-0.682-0.237-0.965-0.443   c-0.528-0.372-0.908-0.925-1.071-1.56c-0.063-0.233-0.095-0.468-0.095-0.696c0-1.531,1.246-2.776,2.777-2.776   s2.777,1.245,2.777,2.776c0,0.292-0.042,0.566-0.13,0.84c-0.18,0.575-0.536,1.065-1.028,1.417   c-0.242,0.172-0.502,0.304-0.784,0.398C18.401,19.807,17.865,19.826,17.399,19.71z"/><path d="M4.902,7.193h12.083c0.336,0,0.594-0.148,0.742-0.455c0.148-0.297,0.099-0.584-0.099-0.841   c-0.198-0.257-0.485-0.307-0.792-0.307H4.981c-0.178,0-0.346,0.02-0.505,0.109C4.16,5.867,4.002,6.223,4.081,6.57   C4.17,6.955,4.467,7.193,4.902,7.193z"/><path d="M19.208,18.127l-0.111-0.65l0.472-0.459c0.109-0.106,0.148-0.266,0.102-0.41c-0.048-0.145-0.173-0.25-0.323-0.272   l-0.652-0.095l-0.292-0.591c-0.135-0.273-0.582-0.273-0.717,0l-0.292,0.591l-0.652,0.095c-0.15,0.022-0.275,0.127-0.323,0.272   c-0.047,0.145-0.007,0.304,0.102,0.41l0.473,0.459l-0.112,0.649c-0.025,0.15,0.036,0.302,0.159,0.392   c0.069,0.05,0.152,0.076,0.235,0.076c0.063,0,0.128-0.015,0.187-0.046l0.583-0.307l0.583,0.307c0.135,0.07,0.298,0.058,0.422-0.03   C19.172,18.429,19.234,18.277,19.208,18.127z"/></g><text x="0" y="39" fill="#000000" font-size="5px" font-weight="bold" font-family="'Helvetica Neue', Helvetica, Arial-Unicode, Arial, Sans-serif">Created by Atif Arshad</text><text x="0" y="44" fill="#000000" font-size="5px" font-weight="bold" font-family="'Helvetica Neue', Helvetica, Arial-Unicode, Arial, Sans-serif">from the Noun Project</text></svg>