<svg xmlns:x="http://ns.adobe.com/Extensibility/1.0/" fill="#97969b" xmlns:i="http://ns.adobe.com/AdobeIllustrator/10.0/" xmlns:graph="http://ns.adobe.com/Graphs/1.0/" xmlns="http://www.w3.org/2000/svg" xmlns:xlink="http://www.w3.org/1999/xlink" version="1.1" x="0px" y="0px" viewBox="0 0 70 87.5" style="enable-background:new 0 0 70 70;" xml:space="preserve"><metadata><?xpacket begin="&#65279;" id="W5M0MpCehiHzreSzNTczkc9d"?><x:xmpmeta xmlns:x="adobe:ns:meta/" x:xmptk="Adobe XMP Core 5.6-c145 79.163499, 2018/08/13-16:40:22        "/><?xpacket end="w"?></metadata><path d="M47.2999878,49.0587769V36.5487671L36.289978,41.8187866C35.960022,41.9987793,35.4899902,42.1187744,35,42.1187744  s-0.9699707-0.1199951-1.3800049-0.3400269L11.1099854,30.9987793V41.178772c0,0.289978,0.1300049,0.5700073,0.3600464,0.7600098  C19.2700195,48.4787598,27.1400146,51.7387695,35,51.7387695C39.0999756,51.7387695,43.210022,50.8487549,47.2999878,49.0587769z"/><path d="M58.8900146,31.0087891l-5.5900269,2.6799927v12.1300049c1.75-1.1300049,3.4899902-2.4200439,5.2300415-3.8800049  C58.75,41.7487793,58.8900146,41.46875,58.8900146,41.178772V31.0087891z"/><path d="M67.4299927,22.8987427l-32-15.3200073c-0.2700195-0.1299438-0.5899658-0.1299438-0.8599854,0l-32,15.3200073  C2.2200317,23.0587769,2,23.4187622,2,23.7987671s0.2200317,0.7399902,0.5700073,0.9000244l32,15.3199463  C34.7000122,40.0887451,34.8499756,40.1187744,35,40.1187744s0.2999878-0.0300293,0.4299927-0.1000366l13.8699951-6.6399536  v18.8299561c-1.3399658,0.3800049-2.3900146,1.4700317-2.6599731,2.8900146l-1.1699829,6.2399902  C45.4199829,61.6287842,45.5,61.928772,45.6900024,62.1587524c0.1900024,0.2300415,0.4699707,0.3599854,0.7700195,0.3599854  h7.7299805c0.289978,0,0.5800171-0.1299438,0.7700195-0.3599854c0.1900024-0.2299805,0.2600098-0.5299683,0.2099609-0.8200073  L54,55.0987549c-0.2700195-1.4299927-1.3400269-2.539978-2.7000122-2.9099731V32.428772l16.1300049-7.7299805  C67.7800293,24.5387573,68,24.178772,68,23.7987671C68,23.4087524,67.7800293,23.0587769,67.4299927,22.8987427z"/></svg>