<svg xmlns="http://www.w3.org/2000/svg" version="1.1" xmlns:xlink="http://www.w3.org/1999/xlink" xmlns:svgjs="http://svgjs.dev/svgjs" width="1440" height="560" preserveAspectRatio="none" viewBox="0 0 1440 560"><g mask="url(&quot;#SvgjsMask1005&quot;)" fill="none"><path d="M-100.39 305.5C39.96 309.91 144.64 519.52 417.08 523.9 689.53 528.28 801.57 646.42 934.56 647.27" stroke="rgba(27, 53, 126, 1)" stroke-width="2"></path><path d="M-136.91 154.8C-32.03 158.41 24.4 305.75 247.79 322.8 471.19 339.85 512.87 598.49 632.5 614.33" stroke="rgba(27, 53, 126, 1)" stroke-width="2"></path><path d="M-252.06 275.57C-65.38 274.37 191.81 99.28 474.2 101.97 756.59 104.66 697.8 522.2 837.33 574.32" stroke="rgba(27, 53, 126, 1)" stroke-width="2"></path><path d="M-186.29 105.52C-81.37 105.77 20.62 175.52 227.52 175.52 434.43 175.52 409.76 93.83 641.34 105.52 872.91 117.21 902.56 545.78 1055.15 594.17" stroke="rgba(27, 53, 126, 1)" stroke-width="2"></path><path d="M-63.46 224.38C104.26 230.96 230.12 501.25 546.77 504.38 863.43 507.51 1003.74 563.35 1157.01 563.42" stroke="rgba(27, 53, 126, 1)" stroke-width="2"></path></g><defs><mask id="SvgjsMask1005"><rect width="1440" height="560" fill="#ffffff"></rect></mask></defs></svg>