<svg id="visual" viewBox="0 0 960 540" width="960" height="540" xmlns="http://www.w3.org/2000/svg" xmlns:xlink="http://www.w3.org/1999/xlink" version="1.1"><path d="M0 372L22.8 363.5C45.7 355 91.3 338 137 339.8C182.7 341.7 228.3 362.3 274 370C319.7 377.7 365.3 372.3 411.2 370.3C457 368.3 503 369.7 548.8 362.7C594.7 355.7 640.3 340.3 686 332.2C731.7 324 777.3 323 823 334.2C868.7 345.3 914.3 368.7 937.2 380.3L960 392L960 541L937.2 541C914.3 541 868.7 541 823 541C777.3 541 731.7 541 686 541C640.3 541 594.7 541 548.8 541C503 541 457 541 411.2 541C365.3 541 319.7 541 274 541C228.3 541 182.7 541 137 541C91.3 541 45.7 541 22.8 541L0 541Z" fill="#e1e1e1"></path><path d="M0 393L22.8 390.3C45.7 387.7 91.3 382.3 137 382.3C182.7 382.3 228.3 387.7 274 395.3C319.7 403 365.3 413 411.2 408.2C457 403.3 503 383.7 548.8 372.7C594.7 361.7 640.3 359.3 686 370.5C731.7 381.7 777.3 406.3 823 408.3C868.7 410.3 914.3 389.7 937.2 379.3L960 369L960 541L937.2 541C914.3 541 868.7 541 823 541C777.3 541 731.7 541 686 541C640.3 541 594.7 541 548.8 541C503 541 457 541 411.2 541C365.3 541 319.7 541 274 541C228.3 541 182.7 541 137 541C91.3 541 45.7 541 22.8 541L0 541Z" fill="#e8e8e8"></path><path d="M0 435L22.8 439C45.7 443 91.3 451 137 450.7C182.7 450.3 228.3 441.7 274 432.8C319.7 424 365.3 415 411.2 409.8C457 404.7 503 403.3 548.8 408.8C594.7 414.3 640.3 426.7 686 426.8C731.7 427 777.3 415 823 418.3C868.7 421.7 914.3 440.3 937.2 449.7L960 459L960 541L937.2 541C914.3 541 868.7 541 823 541C777.3 541 731.7 541 686 541C640.3 541 594.7 541 548.8 541C503 541 457 541 411.2 541C365.3 541 319.7 541 274 541C228.3 541 182.7 541 137 541C91.3 541 45.7 541 22.8 541L0 541Z" fill="#efefef"></path><path d="M0 484L22.8 478.7C45.7 473.3 91.3 462.7 137 455.7C182.7 448.7 228.3 445.3 274 448.7C319.7 452 365.3 462 411.2 463.5C457 465 503 458 548.8 458.2C594.7 458.3 640.3 465.7 686 463C731.7 460.3 777.3 447.7 823 448C868.7 448.3 914.3 461.7 937.2 468.3L960 475L960 541L937.2 541C914.3 541 868.7 541 823 541C777.3 541 731.7 541 686 541C640.3 541 594.7 541 548.8 541C503 541 457 541 411.2 541C365.3 541 319.7 541 274 541C228.3 541 182.7 541 137 541C91.3 541 45.7 541 22.8 541L0 541Z" fill="#f6f6f6"></path><path d="M0 473L22.8 476.3C45.7 479.7 91.3 486.3 137 488.8C182.7 491.3 228.3 489.7 274 489.7C319.7 489.7 365.3 491.3 411.2 489.2C457 487 503 481 548.8 478C594.7 475 640.3 475 686 475.7C731.7 476.3 777.3 477.7 823 478.5C868.7 479.3 914.3 479.7 937.2 479.8L960 480L960 541L937.2 541C914.3 541 868.7 541 823 541C777.3 541 731.7 541 686 541C640.3 541 594.7 541 548.8 541C503 541 457 541 411.2 541C365.3 541 319.7 541 274 541C228.3 541 182.7 541 137 541C91.3 541 45.7 541 22.8 541L0 541Z" fill="#fdfdfd"></path></svg>