<svg xmlns="http://www.w3.org/2000/svg" version="1.1" xmlns:xlink="http://www.w3.org/1999/xlink" xmlns:svgjs="http://svgjs.com/svgjs" width="1440" height="560" preserveAspectRatio="none" viewBox="0 0 1440 560"><g mask="url(&quot;#SvgjsMask1018&quot;)" fill="none"><path d="M457.89 607.58C571.4 593.24 519.87 348.46 825.46 334.92 1131.06 321.38 1365.9 81.01 1560.61 77.32" stroke="rgba(126, 181, 253, 1)" stroke-width="2"></path><path d="M511.78 576.12C674.44 549.77 758.28 156.07 1018.41 154.5 1278.55 152.93 1390.26 336.45 1525.05 339.3" stroke="rgba(126, 181, 253, 1)" stroke-width="2"></path><path d="M750.52 576.63C868.28 570.07 931.43 371.04 1168.08 357.09 1404.73 343.14 1466.74 134.9 1585.64 127.49" stroke="rgba(126, 181, 253, 1)" stroke-width="2"></path><path d="M740.42 627.72C862.96 558.1 804.98 142.5 1024.7 140.91 1244.42 139.32 1435.6 408.26 1593.27 415.31" stroke="rgba(126, 181, 253, 1)" stroke-width="2"></path><path d="M314.3 573.97C492.79 548.74 592.37 131.44 882.62 130.19 1172.87 128.94 1299.75 334.19 1450.94 337.39" stroke="rgba(126, 181, 253, 1)" stroke-width="2"></path></g><defs><mask id="SvgjsMask1018"><rect width="1440" height="560" fill="#ffffff"></rect></mask></defs></svg>