<svg id="visual" viewBox="0 0 900 600" width="900" height="600" xmlns="http://www.w3.org/2000/svg" xmlns:xlink="http://www.w3.org/1999/xlink" version="1.1"><path d="M0 370L25 371.2C50 372.3 100 374.7 150 385.2C200 395.7 250 414.3 300 417.5C350 420.7 400 408.3 450 390C500 371.7 550 347.3 600 357.2C650 367 700 411 750 419.5C800 428 850 401 875 387.5L900 374L900 601L875 601C850 601 800 601 750 601C700 601 650 601 600 601C550 601 500 601 450 601C400 601 350 601 300 601C250 601 200 601 150 601C100 601 50 601 25 601L0 601Z" fill="#c6c6c6" stroke-linecap="round" stroke-linejoin="miter"></path></svg>